<?xml version="1.0" encoding="UTF-8"?>
<svg id="Camada_1" xmlns="http://www.w3.org/2000/svg" xmlns:i="http://ns.adobe.com/AdobeIllustrator/10.0/" version="1.1" viewBox="0 0 841.9 841.9">
  <defs>
    <style>
      .st0 {
        fill: #f3d7b0;
      }
    </style>
  </defs>
  <path class="st0" d="M416.8,556.2c-10.9-9.4-22-20.2-35.9-35l-2-2.1.4-2.9c1.6-11.6,1.1-24.1-1.6-36.1-2.8-12.7-8.8-24.3-15.1-36.6-1.7-3.3-3.4-6.7-5.1-10.1-2.2-4.5-4-8.5-5.5-12.3-4.2-10.4-6.5-19.8-7.1-29-3.8-.5-9.4-1-12.6-1.3-4.1-.4-6.5-.6-7.8-.8-50.6-8.4-86.9-30.1-105.1-62.8-3.8-6.9-11.9-25.7-10.9-36.6.5-5.6,4.2-7.6,7.2-7.6s3.3.4,5.2,2.2c1.1,1,1.5,2.1,2.1,3.8.3.7,1,2.7,1.4,3.3,29.6,42.9,92.4,44.9,142.8,46.6h3.3c22.7.9,46.8,1.6,70.8,1.6h0c33.7,0,62-1.5,86.3-4.6,49.1-6.3,80.2-22.7,92.5-48.8l1.4-2.9,3.2-.5c.8-.1,1.4-.2,2.1-.2,2.7,0,4.4,1.2,5.3,2.2,2.1,2.2,1.9,4.8,1.8,6.1,0,.2,0,.4,0,.6-.3,20.5-10.5,40.7-29.4,58.4-15.5,14.5-36.1,26.3-56.4,32.5-14.5,4.4-29.5,6.5-44,8.5-2.2.3-4.4.6-6.6.9-.6,9.1-2.9,18.3-7.1,28.6-1.8,4.5-3.8,8.7-5.5,12.2-1.7,3.4-3.4,6.8-5.1,10.1-6.3,12.3-12.3,23.9-15.1,36.6-2.7,12-3.2,24.4-1.6,36.1l.4,3-2.1,2.2c-2.4,2.5-4.8,5-7.2,7.4-9.2,9.6-18.8,19.6-29.7,27.8l-4,3-3.7-3.2Z"/>
  <g>
    <path class="st0" d="M444.6,64.2c-.2,9.3-5,14.1-13.9,13.9-8.8-.2-13.5-5.2-13.2-14.5l.3-12.2c.2-9.2,5.1-14,14.1-13.8,6.1.2,10.2,2.7,12.5,7.5.2.5,0,.9-.4,1.2l-1.5.8c-.5.2-.9,0-1.2-.4-1.7-3.6-4.8-5.5-9.4-5.7-6.7-.2-10,3.4-10.2,11.2l-.3,11c-.2,7.7,2.9,11.5,9.5,11.7,6.7.2,9.9-3.5,10.1-11.3v-2.8c0,0-8.5-.2-8.5-.2-.6,0-.9-.3-.9-.9v-1.6c0-.6.4-.9.9-.9l11.3.3c.6,0,.9.3.9.9l-.2,5.9Z"/>
    <path class="st0" d="M476.8,80.8c-.3.4-.6.6-1.1.5l-2.1-.4c-.6-.1-.8-.6-.5-1.1l20.1-34.2c.3-.4.6-.6,1.1-.5l2.5.5c.5.1.8.4.8.9l5.6,39.2c.1.6-.3,1-.9.8l-2.2-.4c-.5-.1-.8-.4-.8-.9l-1.1-8.6-17-3.4-4.3,7.5ZM497.7,73.2l-3.1-23.2h0s-11.6,20.3-11.6,20.3l14.8,2.9Z"/>
    <path class="st0" d="M555.3,103.2c-.2.6-.6.7-1.1.5l-22.5-8.5c-.5-.2-.7-.6-.5-1.1l.7-1.9c.1-.4.4-.6.7-.9l30.6-22.3-18.1-6.8c-.5-.2-.7-.6-.5-1.1l.6-1.5c.2-.6.6-.7,1.1-.5l21.4,8.1c.6.2.7.6.5,1.1l-.7,1.9c-.1.4-.4.6-.7.9l-30.7,22.3,19.3,7.3c.5.2.7.6.5,1.1l-.6,1.5Z"/>
    <path class="st0" d="M604.6,128.9c-.3.5-.7.6-1.2.3l-20.8-12c-.5-.3-.6-.7-.3-1.2l1-1.8c.2-.4.5-.6.8-.7l33.8-17.1-16.7-9.7c-.5-.3-.6-.7-.3-1.2l.8-1.4c.3-.5.7-.6,1.2-.3l19.8,11.4c.5.3.6.7.3,1.2l-1,1.8c-.2.4-.5.6-.8.7l-33.9,17,17.8,10.3c.5.3.6.7.3,1.2l-.8,1.4Z"/>
    <path class="st0" d="M645.5,127.1c5.9-7.1,12.7-7.9,19.6-2.2,7,5.7,7.5,12.5,1.6,19.7l-7.8,9.4c-5.9,7.1-12.7,7.9-19.6,2.1-6.9-5.7-7.5-12.5-1.6-19.6l7.8-9.5ZM641.1,138.5c-4.9,6-4.8,10.9.4,15.1,5.2,4.3,10,3.5,14.9-2.5l7-8.5c4.9-6,4.8-10.9-.4-15.1-5.1-4.2-10-3.4-14.9,2.5l-7,8.5Z"/>
    <path class="st0" d="M681.5,195.2c-.4.4-.9.4-1.2,0l-1.4-1.5c-.4-.4-.4-.9,0-1.2l26.2-23-6.8-7.8c-.4-.4-.4-.9,0-1.2l1.2-1c.4-.4.9-.4,1.2,0l16.2,18.4c.4.4.4.9,0,1.2l-1.2,1c-.4.4-.9.4-1.2,0l-6.8-7.7-26.2,23Z"/>
    <path class="st0" d="M713.8,238.7c-.5.3-.9.2-1.2-.3l-1.1-1.7c-.3-.5-.2-.9.3-1.2l29.5-18.6-5.5-8.8c-.3-.5-.2-.9.3-1.2l1.3-.9c.5-.3.9-.2,1.2.3l13.1,20.7c.3.5.2.9-.3,1.2l-1.3.9c-.5.3-.9.2-1.2-.3l-5.5-8.7-29.5,18.6Z"/>
    <path class="st0" d="M756,263.9c8.5-3.6,14.9-1.1,18.4,7.1,3.5,8.3.9,14.6-7.6,18.2l-11.3,4.8c-8.5,3.6-14.9,1.1-18.4-7.2-3.5-8.2-.9-14.5,7.6-18.2l11.3-4.8ZM746.8,272c-7.1,3-9.2,7.5-6.6,13.6,2.6,6.2,7.3,7.7,14.4,4.7l10.1-4.3c7.1-3,9.2-7.5,6.6-13.6-2.6-6.1-7.3-7.7-14.4-4.6l-10.1,4.3Z"/>
    <path class="st0" d="M764.9,391.2c-.6,0-.9-.2-1-.8l-2.7-21.2c0-.6.2-.9.8-1l37-4.6c.6,0,.9.2,1,.8l.3,2c0,.6-.2.9-.8,1l-34.6,4.3,2.3,18.3c0,.6-.2.9-.8,1l-1.6.2Z"/>
    <path class="st0" d="M765.9,426.4c-.6,0-.9-.3-.9-.9v-2.1c0-.6.3-.9.9-.9l37.3.6c.6,0,.9.3.9.9v2.1c0,.6-.3.9-.9.9l-37.3-.6Z"/>
    <path class="st0" d="M757.6,499c-.6-.1-.8-.4-.7-1l.4-2c.1-.6.4-.8,1-.7l32.4,5.6h0c0,0-30.3-18.6-30.3-18.6-.4-.3-.6-.6-.5-1.2l.3-1.9c0-.5.4-.8.9-.9l35-7.3h0c0,0-32.6-5.7-32.6-5.7-.6-.1-.8-.4-.7-1l.3-1.9c.1-.6.4-.8,1-.7l36.8,6.4c.6.1.8.4.7,1l-.7,3.9c0,.5-.4.8-.9.9l-34.6,7.3,30.2,18.4c.4.3.6.6.5,1.2l-.7,4c0,.6-.4.8-1,.7l-36.8-6.4Z"/>
    <path class="st0" d="M759.7,558.8c-.2.6-.6.7-1.1.5l-1.5-.6c-.6-.2-.7-.6-.5-1.1l5.9-15.7-13.8-5.2-6.8,18.1c-.2.6-.6.7-1.1.5l-1.5-.6c-.6-.2-.7-.6-.5-1.1l7.8-20.8c.2-.6.6-.7,1.1-.5l34.9,13.1c.6.2.7.6.5,1.1l-7.8,20.8c-.2.6-.6.7-1.1.5l-1.5-.6c-.6-.2-.7-.6-.5-1.1l6.8-18.1-13.4-5-5.9,15.7Z"/>
    <path class="st0" d="M723,587.8c-.5-.3-.6-.7-.4-1.2l1-1.8c.3-.5.7-.6,1.2-.4l32.8,17.9c.5.3.6.7.4,1.2l-1,1.8c-.3.5-.7.6-1.2.4l-32.8-17.9Z"/>
    <path class="st0" d="M714.4,629.9l-12.1-9.1c-.5-.4-.5-.8-.2-1.2l1.2-1.7c.4-.5.8-.5,1.2-.2l29.9,22.3c.5.4.5.8.2,1.2l-6.3,8.4c-5.6,7.5-11.1,8.8-17.4,4.1-5.2-3.9-6.4-8.4-3.5-14l-18-1.4c-.7,0-.9-.5-.5-1.1l1.6-2.1c.3-.4.6-.6,1.1-.5l18,1.7,4.9-6.6ZM712.6,638c-4.1,5.4-3.8,9.3.7,12.7,4.5,3.3,8.4,2.5,12.4-2.9l4.5-6.1-13.1-9.8-4.5,6.1Z"/>
    <path class="st0" d="M666.7,663.1c-.2-.5-.1-.8.2-1.2l1.5-1.5c.5-.4,1-.3,1.2.2l16.3,36.1c.2.5.1.8-.2,1.2l-1.8,1.7c-.4.4-.8.4-1.2.2l-35.2-18.1c-.6-.3-.6-.8-.2-1.2l1.6-1.5c.4-.4.8-.4,1.2-.2l7.6,4,12.6-12-3.6-7.8ZM660.9,684.6l20.7,10.9h0s-9.8-21.2-9.8-21.2l-10.9,10.4Z"/>
    <path class="st0" d="M602.7,742.3c3.8,7.3,2.1,13.2-5,16.9-7.1,3.7-13,1.8-16.8-5.5l-5.9-11.3c-3.8-7.4-2.1-13.3,5.1-17,7.1-3.7,13-1.8,16.8,5.6l5.9,11.3ZM593.7,733c-3.1-5.9-7.1-7.5-12.2-4.8-5.2,2.7-6.2,6.8-3.1,12.8l5.5,10.6c3.1,5.9,7,7.4,12.2,4.7,5.1-2.7,6.1-6.8,3.1-12.7l-5.5-10.6Z"/>
    <path class="st0" d="M523,750.7c-.2-.6,0-.9.6-1.1l1.8-.6c.6-.2.9,0,1.1.6l9.7,29.6,6.4-9c.3-.5.7-.6,1.2-.2l1.2.9c.4.4.5.8.2,1.2l-8,11.4c-.3.3-.5.5-.9.7l-1.3.4c-.6.2-.9,0-1.1-.6l-10.9-33.2Z"/>
    <path class="st0" d="M466.4,787.7l-2.1-13.5c-1.2-7.6,2.7-12.9,10.3-14.1,4.3-.7,8.1.2,11,2.4.4.4.5.8.2,1.2l-1,1.4c-.4.5-.8.5-1.3.2-2.2-1.8-5-2.6-8.1-2.1-5.7.9-8.3,4.7-7.4,10.8l.8,5.3h0c1.4-2.8,4.3-4.9,8.4-5.5,7.2-1.1,12.4,2.9,13.5,10.1,1.1,7.3-3,12.8-10.4,13.9-7.4,1.2-12.9-2.8-14-10.1ZM470.1,787.2c.8,5.4,4.7,8.3,9.9,7.5,5.2-.8,8-4.7,7.2-10.1-.8-5.4-4.7-8.2-9.9-7.4-5.1.8-8,4.7-7.1,10Z"/>
    <path class="st0" d="M386,780.6c-.4,3.9-3.9,6.5-7.8,6.1-3.9-.4-6.6-3.9-6.2-7.7.5-3.9,3.9-6.6,7.8-6.2,3.9.4,6.6,3.9,6.2,7.8Z"/>
    <path class="st0" d="M291.1,756.9l5.8-14c.2-.5.6-.7,1.2-.5l1.9.8c.5.2.7.6.5,1.2l-14.3,34.5c-.2.5-.6.7-1.2.5l-9.7-4c-8.6-3.6-11.2-8.6-8.2-15.8,2.5-6,6.6-8.2,12.7-6.9l-3.1-17.8c-.1-.7.3-1,.9-.8l2.4,1c.4.2.7.5.8.9l2.8,17.8,7.6,3.1ZM282.8,757.1c-6.3-2.6-10-1.4-12.2,3.8-2.1,5.2-.4,8.7,5.9,11.3l7,2.9,6.3-15.1-7-2.9Z"/>
    <path class="st0" d="M219.8,716c4.8-7.6,11.2-9.1,18.4-4.6,7.2,4.5,8.5,11,3.8,18.5l-13.5,21.4c-.3.5-.7.6-1.2.3l-1.7-1.1c-.5-.3-.6-.7-.3-1.2l13.2-20.9c3.9-6.2,3.2-10.8-2.1-14.1-5.3-3.4-9.7-2-13.7,4.2l-13.2,20.9c-.3.5-.7.6-1.2.3l-1.6-1c-.5-.3-.6-.7-.3-1.2l13.5-21.4Z"/>
    <path class="st0" d="M186.1,693.7l10.1-11.2c.4-.4.8-.5,1.2,0l1.5,1.4c.4.4.5.8,0,1.2l-25,27.7c-.4.4-.8.5-1.2,0l-7.8-7.1c-6.9-6.2-7.7-11.9-2.5-17.7,4.3-4.8,9-5.5,14.3-2.2l3.1-17.8c.1-.7.6-.9,1.1-.4l1.9,1.7c.3.3.5.7.4,1.1l-3.4,17.7,6.1,5.5ZM178.2,691.1c-5-4.5-9-4.7-12.7-.5-3.7,4.2-3.3,8.1,1.8,12.6l5.6,5.1,11-12.2-5.6-5.1Z"/>
    <path class="st0" d="M157.4,643.2c.5-.2.8,0,1.2.3l1.3,1.7c.4.5.3,1-.3,1.2l-37.5,12.9c-.5.2-.8,0-1.2-.3l-1.6-2c-.3-.4-.3-.8,0-1.2l21.3-33.4c.3-.5.8-.6,1.2,0l1.4,1.8c.3.4.3.8,0,1.2l-4.7,7.2,10.7,13.6,8.1-2.9ZM136.6,635.4l-12.7,19.6h0s22-7.8,22-7.8l-9.3-11.8Z"/>
    <path class="st0" d="M112.3,575.1c.5-.3.9-.2,1.2.3l10.3,18.7c.3.5.2.9-.3,1.2l-32.7,18c-.5.3-.9.2-1.2-.3l-1-1.8c-.3-.5-.2-.9.3-1.2l30.6-16.8-8.9-16.2c-.3-.5-.2-.9.3-1.2l1.4-.8Z"/>
    <path class="st0" d="M48,507.4c-2.1-9.1.5-14.1,8.3-15.9,7.8-1.8,12.3,1.5,14.4,10.6l1.8,7.7,14.5-3.4c.6-.1.9,0,1.1.7l.5,2c.1.6,0,.9-.7,1.1l-36.4,8.5c-.6.1-.9,0-1.1-.7l-2.5-10.6ZM67.4,503c-1.5-6.6-4.7-8.9-10.3-7.6-5.6,1.3-7.4,4.8-5.9,11.4l1.8,7.7,16.2-3.8-1.8-7.7Z"/>
    <path class="st0" d="M62.4,451.4l15.1-.9c.6,0,.9.2.9.8v2.1c.2.6-.1.9-.7.9l-37.3,2.3c-.6,0-.9-.2-.9-.8l-.6-10.5c-.6-9.3,2.8-13.9,10.6-14.3,6.5-.4,10.3,2.3,11.8,8.4l14.7-10.6c.6-.4,1.1-.2,1.1.5l.2,2.6c0,.5-.1.8-.5,1.1l-14.8,10.3.5,8.2ZM58.6,444c-.4-6.8-3.1-9.6-8.8-9.3-5.6.3-8,3.5-7.6,10.3l.5,7.6,16.3-1-.5-7.6Z"/>
    <path class="st0" d="M77.6,391.8c.6,0,.9.4.8.9l-.2,2.1c0,.6-.4.9-.9.8l-37.2-2.9c-.6,0-.9-.4-.8-1l.2-2.1c0-.6.4-.9.9-.8l37.2,2.9Z"/>
    <path class="st0" d="M47.6,336.2c2-8.8,7.4-12.4,16.1-10.4l12.1,2.7c8.6,1.9,12,7.5,10,16.3l-2.6,11.4c-.1.6-.5.8-1.1.7l-36.4-8.2c-.6-.1-.8-.5-.7-1.1l2.6-11.4ZM63.5,329.7c-7.1-1.6-11.1.8-12.6,7.5l-1.9,8.4,31.6,7.1,1.9-8.4c1.5-6.7-1.1-10.6-8.2-12.2l-10.8-2.4Z"/>
    <path class="st0" d="M87.2,272.6c.2-.5.6-.7,1.2-.5l1.5.6c.5.2.7.6.5,1.2l-6.4,15.5,13.6,5.6,7.4-17.8c.2-.5.6-.7,1.2-.5l1.5.6c.5.2.7.6.5,1.2l-8.5,20.6c-.2.5-.6.7-1.2.5l-34.5-14.3c-.5-.2-.7-.6-.5-1.2l8.5-20.6c.2-.5.6-.7,1.2-.5l1.5.6c.5.2.7.6.5,1.2l-7.4,17.8,13.2,5.5,6.4-15.5Z"/>
    <path class="st0" d="M140.1,190c4-3.2,7.9-3.1,12.1.2,5.6,4.4,5.6,9.6,0,16.7l-7.3,9.2c-.4.5-.8.5-1.2.1l-29.3-23.2c-.5-.4-.5-.8-.1-1.2l6.7-8.4c5.6-7.1,10.6-8.3,16-4,3.7,3,4.8,6.4,3.2,10.5h0ZM134.6,194.3c4-5,4-8.6.2-11.6-3.9-3.1-7.3-2.2-11.3,2.8l-4.8,6.1,11.1,8.8,4.8-6.1ZM149.5,204.8c4-5,4-8.7,0-11.9-4-3.2-7.6-2.3-11.6,2.7l-5.4,6.9,11.6,9.2,5.4-6.9Z"/>
    <path class="st0" d="M182.9,146c4.5-2.5,8.3-1.7,11.8,2.3,4.8,5.3,3.9,10.4-2.8,16.4l-8.8,7.9c-.4.4-.9.4-1.2,0l-25-27.8c-.4-.4-.4-.9,0-1.2l8-7.2c6.7-6,11.8-6.4,16.5-1.3,3.2,3.5,3.7,7.1,1.4,10.9h0ZM176.8,149.4c4.8-4.3,5.4-7.8,2.1-11.4-3.3-3.7-6.9-3.4-11.6.9l-5.8,5.2,9.5,10.6,5.8-5.2ZM189.7,162.3c4.8-4.3,5.4-7.9,2-11.7-3.4-3.8-7.1-3.6-11.9.7l-6.5,5.9,9.9,11,6.5-5.9Z"/>
    <path class="st0" d="M254.1,127.1c.5.3.6.7.4,1.2-.8,1.9-2.2,3.6-4.1,4.8-4.5,2.9-8.9,2.1-12.2-2.4-7.5,4.7-14.1,3-19-4.7l-6.5-10.4c-4.9-7.8-3.5-14.5,4.1-19.3,7.6-4.8,14.3-3.2,19.2,4.6l6.5,10.4c4.2,6.7,3.8,12.5-1.1,17.1,2.1,3,4.6,3.6,7.2,1.9,1.4-.9,2.4-2.1,3-3.6.3-.6.6-.8,1.2-.5l1.4.8ZM222.1,123.4c4.1,6.5,8.8,7.9,14.5,4.4,5.7-3.6,6.4-8.4,2.3-15l-5.8-9.3c-4.1-6.5-8.8-7.9-14.5-4.4-5.6,3.5-6.4,8.4-2.3,14.9l5.8,9.3Z"/>
    <path class="st0" d="M312.7,76.6c-1.1-3.7,1-7.5,4.8-8.6s7.6,1,8.7,4.7c1.1,3.8-1,7.6-4.8,8.7-3.7,1.1-7.6-1-8.7-4.8Z"/>
  </g>
</svg>
